%TF.GenerationSoftware,KiCad,Pcbnew,10.0.3*%
%TF.CreationDate,2026-06-16T10:01:49-04:00*%
%TF.ProjectId,FirstSchematic,46697273-7453-4636-9865-6d617469632e,rev?*%
%TF.SameCoordinates,Original*%
%TF.FileFunction,Legend,Top*%
%TF.FilePolarity,Positive*%
%FSLAX46Y46*%
G04 Gerber Fmt 4.6, Leading zero omitted, Abs format (unit mm)*
G04 Created by KiCad (PCBNEW 10.0.3) date 2026-06-16 10:01:49*
%MOMM*%
%LPD*%
G01*
G04 APERTURE LIST*
%ADD10C,0.150000*%
%ADD11C,0.120000*%
G04 APERTURE END LIST*
D10*
X142238095Y-88524819D02*
X142238095Y-89334342D01*
X142238095Y-89334342D02*
X142285714Y-89429580D01*
X142285714Y-89429580D02*
X142333333Y-89477200D01*
X142333333Y-89477200D02*
X142428571Y-89524819D01*
X142428571Y-89524819D02*
X142619047Y-89524819D01*
X142619047Y-89524819D02*
X142714285Y-89477200D01*
X142714285Y-89477200D02*
X142761904Y-89429580D01*
X142761904Y-89429580D02*
X142809523Y-89334342D01*
X142809523Y-89334342D02*
X142809523Y-88524819D01*
X143809523Y-89524819D02*
X143238095Y-89524819D01*
X143523809Y-89524819D02*
X143523809Y-88524819D01*
X143523809Y-88524819D02*
X143428571Y-88667676D01*
X143428571Y-88667676D02*
X143333333Y-88762914D01*
X143333333Y-88762914D02*
X143238095Y-88810533D01*
X153428571Y-74981009D02*
X153095238Y-74981009D01*
X153095238Y-75504819D02*
X153095238Y-74504819D01*
X153095238Y-74504819D02*
X153571428Y-74504819D01*
X153952381Y-75504819D02*
X153952381Y-74504819D01*
X154428571Y-75504819D02*
X154428571Y-74504819D01*
X154428571Y-74504819D02*
X154666666Y-74504819D01*
X154666666Y-74504819D02*
X154809523Y-74552438D01*
X154809523Y-74552438D02*
X154904761Y-74647676D01*
X154904761Y-74647676D02*
X154952380Y-74742914D01*
X154952380Y-74742914D02*
X154999999Y-74933390D01*
X154999999Y-74933390D02*
X154999999Y-75076247D01*
X154999999Y-75076247D02*
X154952380Y-75266723D01*
X154952380Y-75266723D02*
X154904761Y-75361961D01*
X154904761Y-75361961D02*
X154809523Y-75457200D01*
X154809523Y-75457200D02*
X154666666Y-75504819D01*
X154666666Y-75504819D02*
X154428571Y-75504819D01*
X155857142Y-74838152D02*
X155857142Y-75504819D01*
X155619047Y-74457200D02*
X155380952Y-75171485D01*
X155380952Y-75171485D02*
X155999999Y-75171485D01*
X163508333Y-97524819D02*
X163175000Y-97048628D01*
X162936905Y-97524819D02*
X162936905Y-96524819D01*
X162936905Y-96524819D02*
X163317857Y-96524819D01*
X163317857Y-96524819D02*
X163413095Y-96572438D01*
X163413095Y-96572438D02*
X163460714Y-96620057D01*
X163460714Y-96620057D02*
X163508333Y-96715295D01*
X163508333Y-96715295D02*
X163508333Y-96858152D01*
X163508333Y-96858152D02*
X163460714Y-96953390D01*
X163460714Y-96953390D02*
X163413095Y-97001009D01*
X163413095Y-97001009D02*
X163317857Y-97048628D01*
X163317857Y-97048628D02*
X162936905Y-97048628D01*
X163889286Y-96620057D02*
X163936905Y-96572438D01*
X163936905Y-96572438D02*
X164032143Y-96524819D01*
X164032143Y-96524819D02*
X164270238Y-96524819D01*
X164270238Y-96524819D02*
X164365476Y-96572438D01*
X164365476Y-96572438D02*
X164413095Y-96620057D01*
X164413095Y-96620057D02*
X164460714Y-96715295D01*
X164460714Y-96715295D02*
X164460714Y-96810533D01*
X164460714Y-96810533D02*
X164413095Y-96953390D01*
X164413095Y-96953390D02*
X163841667Y-97524819D01*
X163841667Y-97524819D02*
X164460714Y-97524819D01*
X142928571Y-114481009D02*
X142595238Y-114481009D01*
X142595238Y-115004819D02*
X142595238Y-114004819D01*
X142595238Y-114004819D02*
X143071428Y-114004819D01*
X143452381Y-115004819D02*
X143452381Y-114004819D01*
X143928571Y-115004819D02*
X143928571Y-114004819D01*
X143928571Y-114004819D02*
X144166666Y-114004819D01*
X144166666Y-114004819D02*
X144309523Y-114052438D01*
X144309523Y-114052438D02*
X144404761Y-114147676D01*
X144404761Y-114147676D02*
X144452380Y-114242914D01*
X144452380Y-114242914D02*
X144499999Y-114433390D01*
X144499999Y-114433390D02*
X144499999Y-114576247D01*
X144499999Y-114576247D02*
X144452380Y-114766723D01*
X144452380Y-114766723D02*
X144404761Y-114861961D01*
X144404761Y-114861961D02*
X144309523Y-114957200D01*
X144309523Y-114957200D02*
X144166666Y-115004819D01*
X144166666Y-115004819D02*
X143928571Y-115004819D01*
X144833333Y-114004819D02*
X145452380Y-114004819D01*
X145452380Y-114004819D02*
X145119047Y-114385771D01*
X145119047Y-114385771D02*
X145261904Y-114385771D01*
X145261904Y-114385771D02*
X145357142Y-114433390D01*
X145357142Y-114433390D02*
X145404761Y-114481009D01*
X145404761Y-114481009D02*
X145452380Y-114576247D01*
X145452380Y-114576247D02*
X145452380Y-114814342D01*
X145452380Y-114814342D02*
X145404761Y-114909580D01*
X145404761Y-114909580D02*
X145357142Y-114957200D01*
X145357142Y-114957200D02*
X145261904Y-115004819D01*
X145261904Y-115004819D02*
X144976190Y-115004819D01*
X144976190Y-115004819D02*
X144880952Y-114957200D01*
X144880952Y-114957200D02*
X144833333Y-114909580D01*
X162238095Y-114004819D02*
X162238095Y-113004819D01*
X162238095Y-113481009D02*
X162809523Y-113481009D01*
X162809523Y-114004819D02*
X162809523Y-113004819D01*
X163190476Y-113004819D02*
X163809523Y-113004819D01*
X163809523Y-113004819D02*
X163476190Y-113385771D01*
X163476190Y-113385771D02*
X163619047Y-113385771D01*
X163619047Y-113385771D02*
X163714285Y-113433390D01*
X163714285Y-113433390D02*
X163761904Y-113481009D01*
X163761904Y-113481009D02*
X163809523Y-113576247D01*
X163809523Y-113576247D02*
X163809523Y-113814342D01*
X163809523Y-113814342D02*
X163761904Y-113909580D01*
X163761904Y-113909580D02*
X163714285Y-113957200D01*
X163714285Y-113957200D02*
X163619047Y-114004819D01*
X163619047Y-114004819D02*
X163333333Y-114004819D01*
X163333333Y-114004819D02*
X163238095Y-113957200D01*
X163238095Y-113957200D02*
X163190476Y-113909580D01*
X141928571Y-74981009D02*
X141595238Y-74981009D01*
X141595238Y-75504819D02*
X141595238Y-74504819D01*
X141595238Y-74504819D02*
X142071428Y-74504819D01*
X142452381Y-75504819D02*
X142452381Y-74504819D01*
X142928571Y-75504819D02*
X142928571Y-74504819D01*
X142928571Y-74504819D02*
X143166666Y-74504819D01*
X143166666Y-74504819D02*
X143309523Y-74552438D01*
X143309523Y-74552438D02*
X143404761Y-74647676D01*
X143404761Y-74647676D02*
X143452380Y-74742914D01*
X143452380Y-74742914D02*
X143499999Y-74933390D01*
X143499999Y-74933390D02*
X143499999Y-75076247D01*
X143499999Y-75076247D02*
X143452380Y-75266723D01*
X143452380Y-75266723D02*
X143404761Y-75361961D01*
X143404761Y-75361961D02*
X143309523Y-75457200D01*
X143309523Y-75457200D02*
X143166666Y-75504819D01*
X143166666Y-75504819D02*
X142928571Y-75504819D01*
X144452380Y-75504819D02*
X143880952Y-75504819D01*
X144166666Y-75504819D02*
X144166666Y-74504819D01*
X144166666Y-74504819D02*
X144071428Y-74647676D01*
X144071428Y-74647676D02*
X143976190Y-74742914D01*
X143976190Y-74742914D02*
X143880952Y-74790533D01*
X137058333Y-102929580D02*
X137010714Y-102977200D01*
X137010714Y-102977200D02*
X136867857Y-103024819D01*
X136867857Y-103024819D02*
X136772619Y-103024819D01*
X136772619Y-103024819D02*
X136629762Y-102977200D01*
X136629762Y-102977200D02*
X136534524Y-102881961D01*
X136534524Y-102881961D02*
X136486905Y-102786723D01*
X136486905Y-102786723D02*
X136439286Y-102596247D01*
X136439286Y-102596247D02*
X136439286Y-102453390D01*
X136439286Y-102453390D02*
X136486905Y-102262914D01*
X136486905Y-102262914D02*
X136534524Y-102167676D01*
X136534524Y-102167676D02*
X136629762Y-102072438D01*
X136629762Y-102072438D02*
X136772619Y-102024819D01*
X136772619Y-102024819D02*
X136867857Y-102024819D01*
X136867857Y-102024819D02*
X137010714Y-102072438D01*
X137010714Y-102072438D02*
X137058333Y-102120057D01*
X138010714Y-103024819D02*
X137439286Y-103024819D01*
X137725000Y-103024819D02*
X137725000Y-102024819D01*
X137725000Y-102024819D02*
X137629762Y-102167676D01*
X137629762Y-102167676D02*
X137534524Y-102262914D01*
X137534524Y-102262914D02*
X137439286Y-102310533D01*
X162238095Y-75504819D02*
X162238095Y-74504819D01*
X162238095Y-74981009D02*
X162809523Y-74981009D01*
X162809523Y-75504819D02*
X162809523Y-74504819D01*
X163238095Y-74600057D02*
X163285714Y-74552438D01*
X163285714Y-74552438D02*
X163380952Y-74504819D01*
X163380952Y-74504819D02*
X163619047Y-74504819D01*
X163619047Y-74504819D02*
X163714285Y-74552438D01*
X163714285Y-74552438D02*
X163761904Y-74600057D01*
X163761904Y-74600057D02*
X163809523Y-74695295D01*
X163809523Y-74695295D02*
X163809523Y-74790533D01*
X163809523Y-74790533D02*
X163761904Y-74933390D01*
X163761904Y-74933390D02*
X163190476Y-75504819D01*
X163190476Y-75504819D02*
X163809523Y-75504819D01*
X123524819Y-93238094D02*
X122524819Y-93238094D01*
X122524819Y-93238094D02*
X122524819Y-92999999D01*
X122524819Y-92999999D02*
X122572438Y-92857142D01*
X122572438Y-92857142D02*
X122667676Y-92761904D01*
X122667676Y-92761904D02*
X122762914Y-92714285D01*
X122762914Y-92714285D02*
X122953390Y-92666666D01*
X122953390Y-92666666D02*
X123096247Y-92666666D01*
X123096247Y-92666666D02*
X123286723Y-92714285D01*
X123286723Y-92714285D02*
X123381961Y-92761904D01*
X123381961Y-92761904D02*
X123477200Y-92857142D01*
X123477200Y-92857142D02*
X123524819Y-92999999D01*
X123524819Y-92999999D02*
X123524819Y-93238094D01*
X123524819Y-91714285D02*
X123524819Y-92285713D01*
X123524819Y-91999999D02*
X122524819Y-91999999D01*
X122524819Y-91999999D02*
X122667676Y-92095237D01*
X122667676Y-92095237D02*
X122762914Y-92190475D01*
X122762914Y-92190475D02*
X122810533Y-92285713D01*
X124738095Y-113504819D02*
X124738095Y-112504819D01*
X124738095Y-112981009D02*
X125309523Y-112981009D01*
X125309523Y-113504819D02*
X125309523Y-112504819D01*
X126214285Y-112838152D02*
X126214285Y-113504819D01*
X125976190Y-112457200D02*
X125738095Y-113171485D01*
X125738095Y-113171485D02*
X126357142Y-113171485D01*
X145558333Y-102929580D02*
X145510714Y-102977200D01*
X145510714Y-102977200D02*
X145367857Y-103024819D01*
X145367857Y-103024819D02*
X145272619Y-103024819D01*
X145272619Y-103024819D02*
X145129762Y-102977200D01*
X145129762Y-102977200D02*
X145034524Y-102881961D01*
X145034524Y-102881961D02*
X144986905Y-102786723D01*
X144986905Y-102786723D02*
X144939286Y-102596247D01*
X144939286Y-102596247D02*
X144939286Y-102453390D01*
X144939286Y-102453390D02*
X144986905Y-102262914D01*
X144986905Y-102262914D02*
X145034524Y-102167676D01*
X145034524Y-102167676D02*
X145129762Y-102072438D01*
X145129762Y-102072438D02*
X145272619Y-102024819D01*
X145272619Y-102024819D02*
X145367857Y-102024819D01*
X145367857Y-102024819D02*
X145510714Y-102072438D01*
X145510714Y-102072438D02*
X145558333Y-102120057D01*
X145939286Y-102120057D02*
X145986905Y-102072438D01*
X145986905Y-102072438D02*
X146082143Y-102024819D01*
X146082143Y-102024819D02*
X146320238Y-102024819D01*
X146320238Y-102024819D02*
X146415476Y-102072438D01*
X146415476Y-102072438D02*
X146463095Y-102120057D01*
X146463095Y-102120057D02*
X146510714Y-102215295D01*
X146510714Y-102215295D02*
X146510714Y-102310533D01*
X146510714Y-102310533D02*
X146463095Y-102453390D01*
X146463095Y-102453390D02*
X145891667Y-103024819D01*
X145891667Y-103024819D02*
X146510714Y-103024819D01*
X162428571Y-84981009D02*
X162095238Y-84981009D01*
X162095238Y-85504819D02*
X162095238Y-84504819D01*
X162095238Y-84504819D02*
X162571428Y-84504819D01*
X162952381Y-85504819D02*
X162952381Y-84504819D01*
X163428571Y-85504819D02*
X163428571Y-84504819D01*
X163428571Y-84504819D02*
X163666666Y-84504819D01*
X163666666Y-84504819D02*
X163809523Y-84552438D01*
X163809523Y-84552438D02*
X163904761Y-84647676D01*
X163904761Y-84647676D02*
X163952380Y-84742914D01*
X163952380Y-84742914D02*
X163999999Y-84933390D01*
X163999999Y-84933390D02*
X163999999Y-85076247D01*
X163999999Y-85076247D02*
X163952380Y-85266723D01*
X163952380Y-85266723D02*
X163904761Y-85361961D01*
X163904761Y-85361961D02*
X163809523Y-85457200D01*
X163809523Y-85457200D02*
X163666666Y-85504819D01*
X163666666Y-85504819D02*
X163428571Y-85504819D01*
X164380952Y-84600057D02*
X164428571Y-84552438D01*
X164428571Y-84552438D02*
X164523809Y-84504819D01*
X164523809Y-84504819D02*
X164761904Y-84504819D01*
X164761904Y-84504819D02*
X164857142Y-84552438D01*
X164857142Y-84552438D02*
X164904761Y-84600057D01*
X164904761Y-84600057D02*
X164952380Y-84695295D01*
X164952380Y-84695295D02*
X164952380Y-84790533D01*
X164952380Y-84790533D02*
X164904761Y-84933390D01*
X164904761Y-84933390D02*
X164333333Y-85504819D01*
X164333333Y-85504819D02*
X164952380Y-85504819D01*
X124166666Y-99299819D02*
X124166666Y-100014104D01*
X124166666Y-100014104D02*
X124119047Y-100156961D01*
X124119047Y-100156961D02*
X124023809Y-100252200D01*
X124023809Y-100252200D02*
X123880952Y-100299819D01*
X123880952Y-100299819D02*
X123785714Y-100299819D01*
X125166666Y-100299819D02*
X124595238Y-100299819D01*
X124880952Y-100299819D02*
X124880952Y-99299819D01*
X124880952Y-99299819D02*
X124785714Y-99442676D01*
X124785714Y-99442676D02*
X124690476Y-99537914D01*
X124690476Y-99537914D02*
X124595238Y-99585533D01*
X163508333Y-102024819D02*
X163175000Y-101548628D01*
X162936905Y-102024819D02*
X162936905Y-101024819D01*
X162936905Y-101024819D02*
X163317857Y-101024819D01*
X163317857Y-101024819D02*
X163413095Y-101072438D01*
X163413095Y-101072438D02*
X163460714Y-101120057D01*
X163460714Y-101120057D02*
X163508333Y-101215295D01*
X163508333Y-101215295D02*
X163508333Y-101358152D01*
X163508333Y-101358152D02*
X163460714Y-101453390D01*
X163460714Y-101453390D02*
X163413095Y-101501009D01*
X163413095Y-101501009D02*
X163317857Y-101548628D01*
X163317857Y-101548628D02*
X162936905Y-101548628D01*
X163841667Y-101024819D02*
X164460714Y-101024819D01*
X164460714Y-101024819D02*
X164127381Y-101405771D01*
X164127381Y-101405771D02*
X164270238Y-101405771D01*
X164270238Y-101405771D02*
X164365476Y-101453390D01*
X164365476Y-101453390D02*
X164413095Y-101501009D01*
X164413095Y-101501009D02*
X164460714Y-101596247D01*
X164460714Y-101596247D02*
X164460714Y-101834342D01*
X164460714Y-101834342D02*
X164413095Y-101929580D01*
X164413095Y-101929580D02*
X164365476Y-101977200D01*
X164365476Y-101977200D02*
X164270238Y-102024819D01*
X164270238Y-102024819D02*
X163984524Y-102024819D01*
X163984524Y-102024819D02*
X163889286Y-101977200D01*
X163889286Y-101977200D02*
X163841667Y-101929580D01*
X123738095Y-76004819D02*
X123738095Y-75004819D01*
X123738095Y-75481009D02*
X124309523Y-75481009D01*
X124309523Y-76004819D02*
X124309523Y-75004819D01*
X125309523Y-76004819D02*
X124738095Y-76004819D01*
X125023809Y-76004819D02*
X125023809Y-75004819D01*
X125023809Y-75004819D02*
X124928571Y-75147676D01*
X124928571Y-75147676D02*
X124833333Y-75242914D01*
X124833333Y-75242914D02*
X124738095Y-75290533D01*
X163508333Y-93024819D02*
X163175000Y-92548628D01*
X162936905Y-93024819D02*
X162936905Y-92024819D01*
X162936905Y-92024819D02*
X163317857Y-92024819D01*
X163317857Y-92024819D02*
X163413095Y-92072438D01*
X163413095Y-92072438D02*
X163460714Y-92120057D01*
X163460714Y-92120057D02*
X163508333Y-92215295D01*
X163508333Y-92215295D02*
X163508333Y-92358152D01*
X163508333Y-92358152D02*
X163460714Y-92453390D01*
X163460714Y-92453390D02*
X163413095Y-92501009D01*
X163413095Y-92501009D02*
X163317857Y-92548628D01*
X163317857Y-92548628D02*
X162936905Y-92548628D01*
X164460714Y-93024819D02*
X163889286Y-93024819D01*
X164175000Y-93024819D02*
X164175000Y-92024819D01*
X164175000Y-92024819D02*
X164079762Y-92167676D01*
X164079762Y-92167676D02*
X163984524Y-92262914D01*
X163984524Y-92262914D02*
X163889286Y-92310533D01*
%TO.C,U1*%
D11*
X141010000Y-89910000D02*
X144990000Y-89910000D01*
X141010000Y-90010000D02*
X141010000Y-89910000D01*
X141010000Y-95090000D02*
X141010000Y-94990000D01*
X144990000Y-89910000D02*
X144990000Y-90010000D01*
X144990000Y-94990000D02*
X144990000Y-95090000D01*
X144990000Y-95090000D02*
X141010000Y-95090000D01*
X140460000Y-90000000D02*
X140220000Y-89670000D01*
X140700000Y-89670000D01*
X140460000Y-90000000D01*
G36*
X140460000Y-90000000D02*
G01*
X140220000Y-89670000D01*
X140700000Y-89670000D01*
X140460000Y-90000000D01*
G37*
%TO.C,R2*%
X163437742Y-97977500D02*
X163912258Y-97977500D01*
X163437742Y-99022500D02*
X163912258Y-99022500D01*
%TO.C,C1*%
X137084420Y-103490000D02*
X137365580Y-103490000D01*
X137084420Y-104510000D02*
X137365580Y-104510000D01*
%TO.C,D1*%
X123765000Y-91700000D02*
X123765000Y-93985000D01*
X123765000Y-93985000D02*
X125235000Y-93985000D01*
X125235000Y-93985000D02*
X125235000Y-91700000D01*
%TO.C,C2*%
X145584420Y-103490000D02*
X145865580Y-103490000D01*
X145584420Y-104510000D02*
X145865580Y-104510000D01*
%TO.C,J1*%
X123120000Y-100845000D02*
X124500000Y-100845000D01*
X123120000Y-102225000D02*
X123120000Y-100845000D01*
X123120000Y-103495000D02*
X123120000Y-106145000D01*
X123120000Y-103495000D02*
X125880000Y-103495000D01*
X123120000Y-106145000D02*
X125880000Y-106145000D01*
X125880000Y-103495000D02*
X125880000Y-106145000D01*
%TO.C,R3*%
X163437742Y-102477500D02*
X163912258Y-102477500D01*
X163437742Y-103522500D02*
X163912258Y-103522500D01*
%TO.C,R1*%
X163437742Y-93477500D02*
X163912258Y-93477500D01*
X163437742Y-94522500D02*
X163912258Y-94522500D01*
%TD*%
M02*
