%TF.GenerationSoftware,KiCad,Pcbnew,10.0.3*%
%TF.CreationDate,2026-06-16T10:01:49-04:00*%
%TF.ProjectId,FirstSchematic,46697273-7453-4636-9865-6d617469632e,rev?*%
%TF.SameCoordinates,Original*%
%TF.FileFunction,Copper,L2,Bot*%
%TF.FilePolarity,Positive*%
%FSLAX46Y46*%
G04 Gerber Fmt 4.6, Leading zero omitted, Abs format (unit mm)*
G04 Created by KiCad (PCBNEW 10.0.3) date 2026-06-16 10:01:49*
%MOMM*%
%LPD*%
G01*
G04 APERTURE LIST*
%TA.AperFunction,ComponentPad*%
%ADD10C,5.000000*%
%TD*%
%TA.AperFunction,ComponentPad*%
%ADD11R,1.700000X1.700000*%
%TD*%
%TA.AperFunction,ComponentPad*%
%ADD12C,1.700000*%
%TD*%
%TA.AperFunction,ViaPad*%
%ADD13C,0.600000*%
%TD*%
%TA.AperFunction,Conductor*%
%ADD14C,0.200000*%
%TD*%
G04 APERTURE END LIST*
D10*
%TO.P,H3,1,1_1*%
%TO.N,GND*%
X163000000Y-117000000D03*
%TD*%
%TO.P,H2,1,1_1*%
%TO.N,GND*%
X163000000Y-78500000D03*
%TD*%
%TO.P,H4,1,1_1*%
%TO.N,GND*%
X125500000Y-116500000D03*
%TD*%
D11*
%TO.P,J1,1,Pin_1_1*%
%TO.N,GND*%
X124500000Y-102225000D03*
D12*
%TO.P,J1,2,Pin_2_2*%
%TO.N,VCC*%
X124500000Y-104765000D03*
%TD*%
D10*
%TO.P,H1,1,1_1*%
%TO.N,GND*%
X124500000Y-79000000D03*
%TD*%
D13*
%TO.N,TRG*%
X136500000Y-92000000D03*
X136500000Y-101000000D03*
%TO.N,GND*%
X143000000Y-90500000D03*
X166000000Y-79000000D03*
X166000000Y-107500000D03*
X138500000Y-103000000D03*
X144500000Y-102000000D03*
%TO.N,VCC*%
X142000000Y-94500000D03*
X142400000Y-91910000D03*
%TD*%
%TO.N,TRG*%
D14*
X136500000Y-92000000D02*
X136500000Y-101000000D01*
%TO.N,GND*%
X140500000Y-103000000D02*
X138500000Y-103000000D01*
X143000000Y-90500000D02*
X143000000Y-100500000D01*
X143000000Y-100500000D02*
X144500000Y-102000000D01*
X166000000Y-107500000D02*
X166000000Y-79000000D01*
X143000000Y-100500000D02*
X140500000Y-103000000D01*
%TO.N,VCC*%
X142000000Y-92310000D02*
X142000000Y-94500000D01*
X142400000Y-91910000D02*
X142000000Y-92310000D01*
%TD*%
%TA.AperFunction,Conductor*%
%TO.N,GND*%
G36*
X166942539Y-74520185D02*
G01*
X166988294Y-74572989D01*
X166999500Y-74624500D01*
X166999500Y-120375500D01*
X166979815Y-120442539D01*
X166927011Y-120488294D01*
X166875500Y-120499500D01*
X121124500Y-120499500D01*
X121057461Y-120479815D01*
X121011706Y-120427011D01*
X121000500Y-120375500D01*
X121000500Y-104658713D01*
X123149500Y-104658713D01*
X123149500Y-104871286D01*
X123182753Y-105081239D01*
X123248444Y-105283414D01*
X123344951Y-105472820D01*
X123469890Y-105644786D01*
X123620213Y-105795109D01*
X123792179Y-105920048D01*
X123792181Y-105920049D01*
X123792184Y-105920051D01*
X123981588Y-106016557D01*
X124183757Y-106082246D01*
X124393713Y-106115500D01*
X124393714Y-106115500D01*
X124606286Y-106115500D01*
X124606287Y-106115500D01*
X124816243Y-106082246D01*
X125018412Y-106016557D01*
X125207816Y-105920051D01*
X125229789Y-105904086D01*
X125379786Y-105795109D01*
X125379788Y-105795106D01*
X125379792Y-105795104D01*
X125530104Y-105644792D01*
X125530106Y-105644788D01*
X125530109Y-105644786D01*
X125655048Y-105472820D01*
X125655047Y-105472820D01*
X125655051Y-105472816D01*
X125751557Y-105283412D01*
X125817246Y-105081243D01*
X125850500Y-104871287D01*
X125850500Y-104658713D01*
X125817246Y-104448757D01*
X125751557Y-104246588D01*
X125655051Y-104057184D01*
X125655049Y-104057181D01*
X125655048Y-104057179D01*
X125530109Y-103885213D01*
X125416181Y-103771285D01*
X125382696Y-103709962D01*
X125387680Y-103640270D01*
X125429552Y-103584337D01*
X125460529Y-103567422D01*
X125592086Y-103518354D01*
X125592093Y-103518350D01*
X125707187Y-103432190D01*
X125707190Y-103432187D01*
X125793350Y-103317093D01*
X125793354Y-103317086D01*
X125843596Y-103182379D01*
X125843598Y-103182372D01*
X125849999Y-103122844D01*
X125850000Y-103122827D01*
X125850000Y-102475000D01*
X124933012Y-102475000D01*
X124965925Y-102417993D01*
X125000000Y-102290826D01*
X125000000Y-102159174D01*
X124965925Y-102032007D01*
X124933012Y-101975000D01*
X125850000Y-101975000D01*
X125850000Y-101327172D01*
X125849999Y-101327155D01*
X125843598Y-101267627D01*
X125843596Y-101267620D01*
X125793354Y-101132913D01*
X125793350Y-101132906D01*
X125707190Y-101017812D01*
X125707187Y-101017809D01*
X125592093Y-100931649D01*
X125592086Y-100931645D01*
X125457379Y-100881403D01*
X125457372Y-100881401D01*
X125397844Y-100875000D01*
X124750000Y-100875000D01*
X124750000Y-101791988D01*
X124692993Y-101759075D01*
X124565826Y-101725000D01*
X124434174Y-101725000D01*
X124307007Y-101759075D01*
X124250000Y-101791988D01*
X124250000Y-100875000D01*
X123602155Y-100875000D01*
X123542627Y-100881401D01*
X123542620Y-100881403D01*
X123407913Y-100931645D01*
X123407906Y-100931649D01*
X123292812Y-101017809D01*
X123292809Y-101017812D01*
X123206649Y-101132906D01*
X123206645Y-101132913D01*
X123156403Y-101267620D01*
X123156401Y-101267627D01*
X123150000Y-101327155D01*
X123150000Y-101975000D01*
X124066988Y-101975000D01*
X124034075Y-102032007D01*
X124000000Y-102159174D01*
X124000000Y-102290826D01*
X124034075Y-102417993D01*
X124066988Y-102475000D01*
X123150000Y-102475000D01*
X123150000Y-103122844D01*
X123156401Y-103182372D01*
X123156403Y-103182379D01*
X123206645Y-103317086D01*
X123206649Y-103317093D01*
X123292809Y-103432187D01*
X123292812Y-103432190D01*
X123407906Y-103518350D01*
X123407913Y-103518354D01*
X123539470Y-103567422D01*
X123595404Y-103609293D01*
X123619821Y-103674758D01*
X123604969Y-103743031D01*
X123583819Y-103771285D01*
X123469889Y-103885215D01*
X123344951Y-104057179D01*
X123248444Y-104246585D01*
X123182753Y-104448760D01*
X123149500Y-104658713D01*
X121000500Y-104658713D01*
X121000500Y-91921153D01*
X135699500Y-91921153D01*
X135699500Y-92078846D01*
X135730261Y-92233489D01*
X135730264Y-92233501D01*
X135790602Y-92379172D01*
X135790609Y-92379185D01*
X135878602Y-92510874D01*
X135899480Y-92577551D01*
X135899500Y-92579765D01*
X135899500Y-100420234D01*
X135879815Y-100487273D01*
X135878602Y-100489125D01*
X135790609Y-100620814D01*
X135790602Y-100620827D01*
X135730264Y-100766498D01*
X135730261Y-100766510D01*
X135699500Y-100921153D01*
X135699500Y-101078846D01*
X135730261Y-101233489D01*
X135730264Y-101233501D01*
X135790602Y-101379172D01*
X135790609Y-101379185D01*
X135878210Y-101510288D01*
X135878213Y-101510292D01*
X135989707Y-101621786D01*
X135989711Y-101621789D01*
X136120814Y-101709390D01*
X136120827Y-101709397D01*
X136240762Y-101759075D01*
X136266503Y-101769737D01*
X136421153Y-101800499D01*
X136421156Y-101800500D01*
X136421158Y-101800500D01*
X136578844Y-101800500D01*
X136578845Y-101800499D01*
X136733497Y-101769737D01*
X136879179Y-101709394D01*
X137010289Y-101621789D01*
X137121789Y-101510289D01*
X137209394Y-101379179D01*
X137269737Y-101233497D01*
X137300500Y-101078842D01*
X137300500Y-100921158D01*
X137300500Y-100921155D01*
X137300499Y-100921153D01*
X137292592Y-100881401D01*
X137269737Y-100766503D01*
X137269735Y-100766498D01*
X137209397Y-100620827D01*
X137209390Y-100620814D01*
X137121398Y-100489125D01*
X137100520Y-100422447D01*
X137100500Y-100420234D01*
X137100500Y-94421153D01*
X141199500Y-94421153D01*
X141199500Y-94578846D01*
X141230261Y-94733489D01*
X141230264Y-94733501D01*
X141290602Y-94879172D01*
X141290609Y-94879185D01*
X141378210Y-95010288D01*
X141378213Y-95010292D01*
X141489707Y-95121786D01*
X141489711Y-95121789D01*
X141620814Y-95209390D01*
X141620827Y-95209397D01*
X141766498Y-95269735D01*
X141766503Y-95269737D01*
X141921153Y-95300499D01*
X141921156Y-95300500D01*
X141921158Y-95300500D01*
X142078844Y-95300500D01*
X142078845Y-95300499D01*
X142233497Y-95269737D01*
X142379179Y-95209394D01*
X142510289Y-95121789D01*
X142621789Y-95010289D01*
X142709394Y-94879179D01*
X142769737Y-94733497D01*
X142800500Y-94578842D01*
X142800500Y-94421158D01*
X142800500Y-94421155D01*
X142800499Y-94421153D01*
X142769738Y-94266510D01*
X142769737Y-94266503D01*
X142769735Y-94266498D01*
X142709397Y-94120827D01*
X142709390Y-94120814D01*
X142621398Y-93989125D01*
X142600520Y-93922447D01*
X142600500Y-93920234D01*
X142600500Y-92776259D01*
X142620185Y-92709220D01*
X142672989Y-92663465D01*
X142677048Y-92661698D01*
X142779172Y-92619397D01*
X142779172Y-92619396D01*
X142779179Y-92619394D01*
X142910289Y-92531789D01*
X143021789Y-92420289D01*
X143109394Y-92289179D01*
X143169737Y-92143497D01*
X143200500Y-91988842D01*
X143200500Y-91831158D01*
X143200500Y-91831155D01*
X143200499Y-91831153D01*
X143169737Y-91676503D01*
X143169735Y-91676498D01*
X143109397Y-91530827D01*
X143109390Y-91530814D01*
X143021789Y-91399711D01*
X143021786Y-91399707D01*
X142910292Y-91288213D01*
X142910288Y-91288210D01*
X142779185Y-91200609D01*
X142779172Y-91200602D01*
X142633501Y-91140264D01*
X142633489Y-91140261D01*
X142478845Y-91109500D01*
X142478842Y-91109500D01*
X142321158Y-91109500D01*
X142321155Y-91109500D01*
X142166510Y-91140261D01*
X142166498Y-91140264D01*
X142020827Y-91200602D01*
X142020814Y-91200609D01*
X141889711Y-91288210D01*
X141889707Y-91288213D01*
X141778213Y-91399707D01*
X141778210Y-91399711D01*
X141690609Y-91530814D01*
X141690602Y-91530827D01*
X141630264Y-91676498D01*
X141630261Y-91676508D01*
X141599362Y-91831848D01*
X141593371Y-91844618D01*
X141592185Y-91855400D01*
X141579278Y-91874662D01*
X141574098Y-91885707D01*
X141570007Y-91890756D01*
X141519480Y-91941284D01*
X141500552Y-91974069D01*
X141495671Y-91982521D01*
X141495670Y-91982524D01*
X141492020Y-91988846D01*
X141440423Y-92078215D01*
X141399499Y-92230943D01*
X141399499Y-92230945D01*
X141399499Y-92399046D01*
X141399500Y-92399059D01*
X141399500Y-93920234D01*
X141379815Y-93987273D01*
X141378602Y-93989125D01*
X141290609Y-94120814D01*
X141290602Y-94120827D01*
X141230264Y-94266498D01*
X141230261Y-94266510D01*
X141199500Y-94421153D01*
X137100500Y-94421153D01*
X137100500Y-92579765D01*
X137120185Y-92512726D01*
X137121398Y-92510874D01*
X137209390Y-92379185D01*
X137209390Y-92379184D01*
X137209394Y-92379179D01*
X137269737Y-92233497D01*
X137300500Y-92078842D01*
X137300500Y-91921158D01*
X137300500Y-91921155D01*
X137300499Y-91921153D01*
X137269738Y-91766510D01*
X137269737Y-91766503D01*
X137232456Y-91676498D01*
X137209397Y-91620827D01*
X137209390Y-91620814D01*
X137121789Y-91489711D01*
X137121786Y-91489707D01*
X137010292Y-91378213D01*
X137010288Y-91378210D01*
X136879185Y-91290609D01*
X136879172Y-91290602D01*
X136733501Y-91230264D01*
X136733489Y-91230261D01*
X136578845Y-91199500D01*
X136578842Y-91199500D01*
X136421158Y-91199500D01*
X136421155Y-91199500D01*
X136266510Y-91230261D01*
X136266498Y-91230264D01*
X136120827Y-91290602D01*
X136120814Y-91290609D01*
X135989711Y-91378210D01*
X135989707Y-91378213D01*
X135878213Y-91489707D01*
X135878210Y-91489711D01*
X135790609Y-91620814D01*
X135790602Y-91620827D01*
X135730264Y-91766498D01*
X135730261Y-91766510D01*
X135699500Y-91921153D01*
X121000500Y-91921153D01*
X121000500Y-74624500D01*
X121020185Y-74557461D01*
X121072989Y-74511706D01*
X121124500Y-74500500D01*
X166875500Y-74500500D01*
X166942539Y-74520185D01*
G37*
%TD.AperFunction*%
%TD*%
M02*
